<?xml version="1.0" encoding="UTF-8" standalone="no"?>
<svg width="12px" height="12px" viewBox="0 0 12 12" version="1.1" xmlns="http://www.w3.org/2000/svg" xmlns:xlink="http://www.w3.org/1999/xlink" xmlns:sketch="http://www.bohemiancoding.com/sketch/ns">
    <!-- Generator: Sketch 3.5.2 (25235) - http://www.bohemiancoding.com/sketch -->
    <title>@</title>
    <desc>Created with Sketch.</desc>
    <defs></defs>
    <g id="Page-1" stroke="none" stroke-width="1" fill="none" fill-rule="evenodd" sketch:type="MSPage">
        <path d="M0.0337976813,5.96042299 C0.0337976813,9.78042299 2.84998792,11.9122752 5.84998792,11.9122752 C7.40998792,11.9122752 9.26396091,11.4581241 10.1239609,10.3381241 L9.42396091,9.81812413 C8.68396091,10.6981241 7.20998792,11.0322752 5.84998792,11.0322752 C3.32998792,11.0322752 0.913797681,9.14042299 0.913797681,5.96042299 C0.913797681,2.76042299 3.50998792,0.853687481 5.84998792,0.853687481 C8.38998792,0.853687481 11.0816355,2.63879328 11.0816355,5.67879328 C11.0816355,7.13879328 9.95361116,8.19126343 9.25361116,8.19126343 C8.85361116,8.19126343 8.65361116,7.89126343 8.51361116,7.43126343 L8.51361116,5.51126343 C8.51361116,3.73126343 7.51361116,2.73126343 5.79361116,2.73126343 C5.07361116,2.73126343 4.31361116,2.89126343 3.71361116,3.27126343 L4.19361116,3.99126343 C4.61361116,3.73126343 5.21361116,3.59126343 5.79361116,3.59126343 C6.97361116,3.59126343 7.65361116,4.23126343 7.65361116,5.51126343 L7.65361116,6.55126343 C6.61361116,5.53126343 6.01361116,5.45126343 5.41361116,5.45126343 C4.19361116,5.45126343 3.39361116,6.35126343 3.39361116,7.33126343 C3.39361116,8.43126343 4.33361116,9.29126343 5.61361116,9.29126343 C6.19361116,9.29126343 6.93361116,9.11126343 7.89361116,8.13126343 C8.17361116,8.73126343 8.65361116,9.07126343 9.25361116,9.07126343 C10.0336112,9.07126343 11.9416355,8.25879328 11.9416355,5.67879328 C11.9416355,2.21879328 9.06998792,-0.00631251931 5.84998792,-0.00631251931 C3.14998792,-0.00631251931 0.0337976813,2.12042299 0.0337976813,5.96042299 Z M5.5099939,8.45000183 C4.7099939,8.45000183 4.1499939,7.93000183 4.1499939,7.35000183 C4.1499939,6.77000183 4.6099939,6.33000183 5.3899939,6.33000183 C6.0899939,6.33000183 6.5899939,6.67000183 7.4299939,7.49000183 C6.7499939,8.09000183 6.1299939,8.45000183 5.5099939,8.45000183 L5.5099939,8.45000183 Z" id="@" fill="#5CACC1" sketch:type="MSShapeGroup"></path>
    </g>
</svg>